<svg width="32" height="32" viewBox="0 0 32 32" fill="none" xmlns="http://www.w3.org/2000/svg">
<circle cx="16" cy="16" r="16" fill="#9BE6C8" fill-opacity="0.3"/>
<circle cx="16" cy="16" r="12" fill="#9BE6C8"/>
<g clip-path="url(#clip0_5367_101285)">
<path d="M12 22C12.7364 22 13.3334 21.403 13.3334 20.6667C13.3334 19.9303 12.7364 19.3333 12 19.3333C11.2636 19.3333 10.6667 19.9303 10.6667 20.6667C10.6667 21.403 11.2636 22 12 22Z" stroke="white" stroke-width="1.5" stroke-linecap="round" stroke-linejoin="round"/>
<path d="M20 12.6667C20.7364 12.6667 21.3334 12.0697 21.3334 11.3333C21.3334 10.597 20.7364 10 20 10C19.2636 10 18.6667 10.597 18.6667 11.3333C18.6667 12.0697 19.2636 12.6667 20 12.6667Z" stroke="white" stroke-width="1.5" stroke-linecap="round" stroke-linejoin="round"/>
<path d="M16 20.6667H19C19.6188 20.6667 20.2123 20.4208 20.6499 19.9832C21.0875 19.5457 21.3333 18.9522 21.3333 18.3333C21.3333 17.7145 21.0875 17.121 20.6499 16.6834C20.2123 16.2458 19.6188 16 19 16H13.6666C13.0478 16 12.4543 15.7542 12.0167 15.3166C11.5791 14.879 11.3333 14.2855 11.3333 13.6667C11.3333 13.0478 11.5791 12.4543 12.0167 12.0167C12.4543 11.5792 13.0478 11.3333 13.6666 11.3333H16" stroke="white" stroke-width="1.5" stroke-linecap="round" stroke-linejoin="round"/>
</g>
<defs>
<clipPath id="clip0_5367_101285">
<rect width="16" height="16" fill="white" transform="translate(8 8)"/>
</clipPath>
</defs>
</svg>
